<?xml version="1.0" encoding="UTF-8" standalone="no"?>
<!-- Created with Inkscape (http://www.inkscape.org/) -->

<svg
   width="210mm"
   height="297mm"
   viewBox="0 0 210 297"
   version="1.1"
   id="svg5"
   sodipodi:docname="lemon.svg"
   inkscape:version="1.2.1 (9c6d41e410, 2022-07-14)"
   xmlns:inkscape="http://www.inkscape.org/namespaces/inkscape"
   xmlns:sodipodi="http://sodipodi.sourceforge.net/DTD/sodipodi-0.dtd"
   xmlns="http://www.w3.org/2000/svg"
   xmlns:svg="http://www.w3.org/2000/svg">
  <sodipodi:namedview
     id="namedview7"
     pagecolor="#ffffff"
     bordercolor="#000000"
     borderopacity="0.25"
     inkscape:showpageshadow="2"
     inkscape:pageopacity="0.0"
     inkscape:pagecheckerboard="0"
     inkscape:deskcolor="#d1d1d1"
     inkscape:document-units="mm"
     showgrid="false"
     inkscape:lockguides="false"
     inkscape:zoom="0.2973261"
     inkscape:cx="447.3203"
     inkscape:cy="780.28804"
     inkscape:window-width="1339"
     inkscape:window-height="697"
     inkscape:window-x="383"
     inkscape:window-y="386"
     inkscape:window-maximized="0"
     inkscape:current-layer="layer1" />
  <defs
     id="defs2">
    <linearGradient
       id="linearGradient1801"
       inkscape:swatch="solid">
      <stop
         style="stop-color:#000000;stop-opacity:1;"
         offset="0"
         id="stop1799" />
    </linearGradient>
  </defs>
  <g
     inkscape:label="Layer 1"
     inkscape:groupmode="layer"
     id="layer1">
    <g
       id="use1059"
       transform="matrix(3.0446116,0,0,3.9456496,-60.517867,-590.26902)"
       style="fill:#ffdd55;stroke:none">
      <path
         id="ellipse1817"
         style="fill:#ffdd55;stroke:#000000;stroke-width:1.265;stroke-linecap:square;stroke-linejoin:round;stroke-dasharray:none;stroke-opacity:1;paint-order:stroke fill markers"
         d="m 67.408105,176.97408 a 3.0033312,2.1134553 0 0 1 -3.003331,2.11345 3.0033312,2.1134553 0 0 1 -3.003331,-2.11345 3.0033312,2.1134553 0 0 1 3.003331,-2.11346 3.0033312,2.1134553 0 0 1 3.003331,2.11346 z m -23.804188,0 a 3.0033312,2.1134553 0 0 1 -3.003331,2.11345 3.0033312,2.1134553 0 0 1 -3.003331,-2.11345 3.0033312,2.1134553 0 0 1 3.003331,-2.11346 3.0033312,2.1134553 0 0 1 3.003331,2.11346 z m 21.023322,0 a 12.235794,8.2313519 0 0 1 -12.235794,8.23135 12.235794,8.2313519 0 0 1 -12.235794,-8.23135 12.235794,8.2313519 0 0 1 12.235794,-8.23135 12.235794,8.2313519 0 0 1 12.235794,8.23135 z" />
    </g>
  </g>
</svg>
